<?xml version="1.0" encoding="UTF-8" standalone="no"?>
<svg
   xmlns:dc="http://purl.org/dc/elements/1.1/"
   xmlns:cc="http://creativecommons.org/ns#"
   xmlns:rdf="http://www.w3.org/1999/02/22-rdf-syntax-ns#"
   xmlns:svg="http://www.w3.org/2000/svg"
   xmlns="http://www.w3.org/2000/svg"
   xmlns:sodipodi="http://sodipodi.sourceforge.net/DTD/sodipodi-0.dtd"
   xmlns:inkscape="http://www.inkscape.org/namespaces/inkscape"
   width="72"
   height="72"
   viewBox="0 0 19.05 19.050001"
   version="1.1"
   id="svg8"
   inkscape:version="1.0.2 (e86c870879, 2021-01-15)"
   sodipodi:docname="favicon.svg">
  <defs
     id="defs2">
    <clipPath
       clipPathUnits="userSpaceOnUse"
       id="clipPath872">
      <path
         id="path874"
         style="fill:#fac345;fill-opacity:0.349485;stroke:#313a49;stroke-width:0.312481;stroke-opacity:1"
         d="M -2.7342433,1.3813023 V 32.195987 H 34.263555 V 1.3813023 Z M 28.75766,10.263146 29.255551,22.176154 23.818267,22.062661 14.165348,17.219302 c 0,0 -0.134872,-0.05219 8.677792,-6.75187 z" />
    </clipPath>
  </defs>
  <sodipodi:namedview
     id="base"
     pagecolor="#ffffff"
     bordercolor="#666666"
     borderopacity="1.0"
     inkscape:pageopacity="0.0"
     inkscape:pageshadow="2"
     inkscape:zoom="2.7243009"
     inkscape:cx="32.703504"
     inkscape:cy="63.493593"
     inkscape:document-units="mm"
     inkscape:current-layer="layer1"
     inkscape:document-rotation="0"
     showgrid="false"
     inkscape:window-width="1920"
     inkscape:window-height="1005"
     inkscape:window-x="0"
     inkscape:window-y="0"
     inkscape:window-maximized="1"
     units="px" />
  <metadata
     id="metadata5">
    <rdf:RDF>
      <cc:Work
         rdf:about="">
        <dc:format>image/svg+xml</dc:format>
        <dc:type
           rdf:resource="http://purl.org/dc/dcmitype/StillImage" />
        <dc:title></dc:title>
      </cc:Work>
    </rdf:RDF>
  </metadata>
  <g
     inkscape:label="Layer 1"
     inkscape:groupmode="layer"
     id="layer1">
    <path
       style="color:#000000;font-style:normal;font-variant:normal;font-weight:normal;font-stretch:normal;font-size:medium;line-height:normal;font-family:sans-serif;font-variant-ligatures:normal;font-variant-position:normal;font-variant-caps:normal;font-variant-numeric:normal;font-variant-alternates:normal;font-variant-east-asian:normal;font-feature-settings:normal;font-variation-settings:normal;text-indent:0;text-align:start;text-decoration:none;text-decoration-line:none;text-decoration-style:solid;text-decoration-color:#000000;letter-spacing:normal;word-spacing:normal;text-transform:none;writing-mode:lr-tb;direction:ltr;text-orientation:mixed;dominant-baseline:auto;baseline-shift:baseline;text-anchor:start;white-space:normal;shape-padding:0;shape-margin:0;inline-size:0;clip-rule:nonzero;display:inline;overflow:visible;visibility:visible;isolation:auto;mix-blend-mode:normal;color-interpolation:sRGB;color-interpolation-filters:linearRGB;solid-color:#000000;solid-opacity:1;vector-effect:none;fill:#fac345;fill-opacity:1;fill-rule:nonzero;stroke:none;stroke-width:0.766909;stroke-linecap:butt;stroke-linejoin:miter;stroke-miterlimit:4;stroke-dasharray:none;stroke-dashoffset:0;stroke-opacity:1;color-rendering:auto;image-rendering:auto;shape-rendering:auto;text-rendering:auto;enable-background:accumulate;stop-color:#000000"
       d="M 17.192249,5.0788894 C 17.199428,4.5276048 14.146792,0.65039528 9.4264822,0.64815698 4.7061723,0.64591368 0.61094606,3.8852511 0.64839247,9.6407854 0.68583607,15.396321 5.100028,18.39785 10.059615,18.395709 c 4.959587,-0.0021 8.065952,-5.298497 8.079326,-5.974817 0.01338,-0.67632 -8.091211,-2.112435 -7.842235,-2.8821926 0.248977,-0.769757 6.888318,-3.908525 6.895543,-4.45981 z"
       id="path897" />
    <path
       style="color:#000000;font-style:normal;font-variant:normal;font-weight:normal;font-stretch:normal;font-size:medium;line-height:normal;font-family:sans-serif;font-variant-ligatures:normal;font-variant-position:normal;font-variant-caps:normal;font-variant-numeric:normal;font-variant-alternates:normal;font-variant-east-asian:normal;font-feature-settings:normal;font-variation-settings:normal;text-indent:0;text-align:start;text-decoration:none;text-decoration-line:none;text-decoration-style:solid;text-decoration-color:#000000;letter-spacing:normal;word-spacing:normal;text-transform:none;writing-mode:lr-tb;direction:ltr;text-orientation:mixed;dominant-baseline:auto;baseline-shift:baseline;text-anchor:start;white-space:normal;shape-padding:0;shape-margin:0;inline-size:0;clip-rule:nonzero;display:inline;overflow:visible;visibility:visible;isolation:auto;mix-blend-mode:normal;color-interpolation:sRGB;color-interpolation-filters:linearRGB;solid-color:#000000;solid-opacity:1;vector-effect:none;fill:#403e43;fill-opacity:1;fill-rule:nonzero;stroke:none;stroke-width:0.972172;stroke-linecap:butt;stroke-linejoin:miter;stroke-miterlimit:4;stroke-dasharray:none;stroke-dashoffset:0;stroke-opacity:1;color-rendering:auto;image-rendering:auto;shape-rendering:auto;text-rendering:auto;enable-background:accumulate;stop-color:#000000"
       d="M 9.5543939,0.26189708 C 7.0725186,0.26073468 4.7399228,1.1009574 3.0283748,2.7037455 1.3168268,4.3065334 0.24227521,6.6726394 0.26188959,9.6438354 0.28154419,12.621349 1.4661164,14.935371 3.3017954,16.473795 c 1.8356791,1.538424 4.3032975,2.310036 6.8962756,2.308933 2.651608,-0.0012 4.788036,-1.39375 6.252599,-2.84819 0.732281,-0.72722 1.30056,-1.473077 1.69179,-2.088673 0.195616,-0.307798 0.347103,-0.581017 0.453803,-0.810784 0.106699,-0.229768 0.181474,-0.37631 0.186077,-0.605716 0.0048,-0.238529 -0.135065,-0.363473 -0.235445,-0.444317 -0.10038,-0.08085 -0.207151,-0.139295 -0.334181,-0.199373 -0.25406,-0.120157 -0.583501,-0.237353 -0.974061,-0.360771 -0.78112,-0.246838 -1.8019,-0.514609 -2.812056,-0.784202 -1.010154,-0.269593 -2.011183,-0.542021 -2.724712,-0.7879996 -0.335781,-0.115755 -0.59184,-0.224837 -0.755705,-0.313301 0.04207,-0.04668 0.02162,-0.02457 0.100635,-0.08545 0.189454,-0.145975 0.464357,-0.328009 0.79178,-0.529763 0.654847,-0.403508 1.519433,-0.884912 2.377241,-1.359536 0.857808,-0.474623 1.710323,-0.942273 2.358253,-1.332953 0.323965,-0.19534 0.595277,-0.370314 0.801275,-0.525965 0.102998,-0.07783 0.190056,-0.150324 0.265825,-0.231653 0.07577,-0.08133 0.177325,-0.159396 0.180382,-0.389253 0.0033,-0.2527015 -0.08599,-0.3674836 -0.193674,-0.5506461 C 17.520212,4.3510198 17.370292,4.1405825 17.177893,3.9075805 16.793095,3.4415764 16.236889,2.888626 15.525977,2.3505698 14.104152,1.2744576 12.053325,0.26306498 9.5543939,0.26189708 Z m 0,0.77280892 c 2.2905601,0.00107 4.1839741,0.9301995 5.5063871,1.9310729 0.661208,0.5004368 1.17732,1.0174975 1.520903,1.4335891 0.171791,0.2080457 0.300734,0.3915652 0.379751,0.5259657 0.04265,0.072543 0.03651,0.048072 0.04747,0.079749 -0.03011,0.02673 -0.04959,0.04641 -0.09874,0.08355 -0.164802,0.124526 -0.422244,0.291924 -0.734817,0.480395 -0.625148,0.376943 -1.474722,0.844463 -2.33357,1.319661 -0.858848,0.475199 -1.728066,0.957893 -2.40762,1.376626 -0.339777,0.209366 -0.630898,0.402067 -0.858237,0.577233 -0.22734,0.175166 -0.406316,0.27443 -0.505069,0.575334 -0.06696,0.204042 0.02991,0.4188367 0.125317,0.5278645 0.09541,0.1090268 0.199847,0.1760188 0.32089,0.2449438 0.242086,0.137852 0.555749,0.262591 0.934188,0.393053 0.756877,0.260922 1.763566,0.534892 2.775978,0.805087 1.012413,0.270196 2.028829,0.536106 2.777878,0.772809 0.374525,0.118353 0.685154,0.231956 0.877225,0.322796 0.04328,0.02046 0.05198,0.02856 0.08164,0.04557 -0.01595,0.05301 -0.01541,0.06446 -0.06835,0.178486 -0.08792,0.189338 -0.224022,0.439564 -0.404435,0.72344 -0.360825,0.567754 -0.899038,1.274081 -1.585459,1.955758 -1.372843,1.363353 -3.326989,2.621221 -5.707657,2.622233 C 7.7587709,18.011022 5.4686975,17.282069 3.7973664,15.88138 2.1260392,14.480682 1.0530203,12.41616 1.0346826,9.6381394 1.0163017,6.8537994 2.0022796,4.7228906 3.5562286,3.2676871 5.1101775,1.8124835 7.2467781,1.0336252 9.5543939,1.034706 Z"
       id="path899" />
  </g>
</svg>
