<?xml version="1.0" standalone="no"?>
<!DOCTYPE svg PUBLIC "-//W3C//DTD SVG 20010904//EN"
 "http://www.w3.org/TR/2001/REC-SVG-20010904/DTD/svg10.dtd">
<svg version="1.0" xmlns="http://www.w3.org/2000/svg"
 width="700.000000pt" height="700.000000pt" viewBox="0 0 700.000000 700.000000"
 preserveAspectRatio="xMidYMid meet">
<metadata>
Created by potrace 1.14, written by Peter Selinger 2001-2017
</metadata>
<g transform="translate(0.000000,700.000000) scale(0.100000,-0.100000)"
fill="#000000" stroke="none">
<path d="M3417 6904 c-1 -1 -60 -4 -132 -8 -136 -7 -184 -11 -250 -21 -22 -3
-58 -8 -80 -10 -246 -31 -644 -140 -885 -243 -408 -174 -726 -387 -1026 -687
-287 -286 -476 -564 -657 -966 -130 -286 -229 -683 -272 -1078 -23 -219 -23
-519 0 -801 10 -124 58 -395 94 -537 158 -617 499 -1170 967 -1572 142 -122
154 -131 299 -230 134 -91 156 -105 285 -174 41 -22 84 -45 95 -52 38 -23 271
-124 370 -161 143 -52 326 -110 410 -128 6 -2 28 -8 50 -14 22 -6 51 -13 65
-16 14 -2 45 -9 70 -15 25 -5 74 -15 110 -20 36 -6 79 -13 95 -16 69 -11 92
-15 135 -21 25 -3 61 -7 80 -9 19 -1 67 -6 105 -9 230 -21 522 -22 698 -1 112
13 135 16 212 31 739 143 1394 546 2015 1239 252 282 538 723 614 948 58 172
-19 271 -299 381 -180 70 -470 159 -835 256 -96 25 -163 43 -320 86 -30 9 -62
17 -70 19 -16 3 -280 75 -390 105 -36 10 -101 28 -145 40 -321 86 -752 234
-789 270 -12 12 13 32 179 142 174 115 177 117 195 125 8 4 50 29 93 55 43 26
81 48 83 48 3 0 30 16 60 35 30 19 56 35 58 35 2 0 54 29 116 65 62 36 114 65
116 65 1 0 29 15 61 34 77 44 144 81 223 124 36 19 70 38 75 42 6 4 46 27 90
50 44 24 96 52 115 63 19 11 55 31 80 45 651 362 910 537 954 643 22 52 14
137 -17 201 -122 247 -472 622 -832 888 -294 218 -618 398 -925 515 -69 26
-134 51 -145 55 -24 10 -172 55 -232 69 -24 6 -60 15 -80 20 -21 6 -54 13 -73
16 -19 3 -51 10 -70 15 -20 5 -51 12 -70 14 -19 3 -48 7 -65 10 -84 14 -191
26 -290 32 -104 6 -314 11 -318 8z"/>
</g>
</svg>
