<svg width="72" height="107" version="1.1" viewBox="0 0 19.05 28.31" xmlns="http://www.w3.org/2000/svg" id="logo_extended">
 <g fill="var(--header-color)">
  <path d="m-10.124-20.537c0.0075-0.56706-3.1786-4.5552-8.1052-4.5575-4.9266-0.0023-9.2009 3.3297-9.1618 9.2499 0.03908 5.9202 4.6462 9.0076 9.8226 9.0054 5.1764-0.0022 8.4185-5.4501 8.4325-6.1458 0.01396-0.69567-8.4449-2.1729-8.185-2.9647 0.25986-0.79178 7.1894-4.0204 7.197-4.5874z"/>
  <g transform="matrix(.99904 0 0 1.0004 -27.915 -4.1933)">
   <path d="m45.623 9.1313c0.0075-0.56524-3.1818-4.5406-8.1135-4.5429-4.9317-0.0023-9.2102 3.319-9.1711 9.2203 0.03912 5.9012 4.651 8.9787 9.8326 8.9765 5.1816-0.0022 8.4271-5.4326 8.4411-6.1261 0.01397-0.69344-8.4535-2.1659-8.1934-2.9552s7.1967-4.0075 7.2043-4.5727z" style="color-rendering:auto;color:#000000;dominant-baseline:auto;fill:#fac345;font-feature-settings:normal;font-variant-alternates:normal;font-variant-caps:normal;font-variant-east-asian:normal;font-variant-ligatures:normal;font-variant-numeric:normal;font-variant-position:normal;font-variation-settings:normal;image-rendering:auto;inline-size:0;isolation:auto;mix-blend-mode:normal;shape-margin:0;shape-padding:0;shape-rendering:auto;solid-color:#000000;stop-color:#000000;text-decoration-color:#000000;text-decoration-line:none;text-decoration-style:solid;text-indent:0;text-orientation:mixed;text-transform:none;white-space:normal"/>
   <path d="m37.51 4.1914c-2.555-0.00119-4.9584 0.86058-6.7207 2.5039-1.7623 1.6433-2.8679 4.0682-2.8477 7.1152 0.02024 3.0535 1.2408 5.4286 3.1309 7.0059 1.8901 1.5773 4.4302 2.3664 7.0996 2.3652 2.7294-0.0012 4.9295-1.4267 6.4375-2.918 0.75402-0.74563 1.3393-1.5094 1.7422-2.1406 0.20144-0.31562 0.35689-0.59832 0.4668-0.83398 0.10991-0.23567 0.18665-0.38494 0.19141-0.62109 5e-3 -0.24585-0.13889-0.37419-0.24219-0.45703-0.1033-0.08284-0.21497-0.14351-0.3457-0.20508-0.26147-0.12314-0.59984-0.24261-1.002-0.36914-0.80422-0.25306-1.8544-0.52632-2.8945-0.80274s-2.0699-0.55635-2.8047-0.80859c-0.3448-0.11836-0.60832-0.22966-0.77734-0.32031 0.04325-0.04772 0.02153-0.02454 0.10156-0.08594 0.19511-0.1497 0.47925-0.33805 0.81641-0.54492 0.67432-0.41374 1.562-0.90594 2.4453-1.3926 0.88327-0.48664 1.7606-0.96664 2.4277-1.3672 0.33356-0.20027 0.6141-0.3795 0.82617-0.53906 0.10604-0.079782 0.19541-0.15293 0.27344-0.23633 0.07803-0.083401 0.18238-0.16539 0.18555-0.40234 0.0035-0.2603-0.08829-0.37658-0.19922-0.56445-0.11093-0.18787-0.26477-0.40366-0.46289-0.64258-0.39624-0.47783-0.96725-1.046-1.6992-1.5977-1.4639-1.1033-3.576-2.1394-6.1484-2.1406zm0 0.79297c2.3592 0.0011 4.3082 0.95419 5.6699 1.9805 0.68088 0.51314 1.2126 1.0461 1.5664 1.4727 0.17688 0.2133 0.30931 0.40134 0.39062 0.53906 0.04229 0.071628 0.0353 0.044196 0.04687 0.078125-0.03091 0.027269-0.04956 0.048282-0.09961 0.085937-0.16973 0.12771-0.43594 0.29893-0.75781 0.49219-0.64374 0.38651-1.518 0.86629-2.4023 1.3535-0.88434 0.48723-1.7788 0.9828-2.4785 1.4121-0.34984 0.21466-0.65071 0.41222-0.88476 0.5918-0.23406 0.17958-0.41554 0.28025-0.51758 0.58984-0.06922 0.21002 0.02867 0.42918 0.12695 0.54102 0.09828 0.11184 0.20746 0.18328 0.33203 0.25391 0.24913 0.14126 0.57132 0.2686 0.96094 0.40234 0.77923 0.26749 1.8169 0.54718 2.8594 0.82422 1.0425 0.27703 2.088 0.55025 2.8594 0.79297 0.38568 0.12136 0.70444 0.23688 0.90234 0.33008 0.04424 0.02083 0.05352 0.02951 0.08398 0.04687-0.01643 0.05438-0.01602 0.06521-0.07031 0.18164-0.09049 0.19404-0.23027 0.45116-0.41602 0.74219-0.37149 0.58206-0.92406 1.305-1.6309 2.0039-1.4136 1.3979-3.4267 2.6884-5.8789 2.6895-2.5122 0.0011-4.8708-0.74737-6.5918-2.1836s-2.8249-3.5507-2.8438-6.3984c-0.01892-2.8542 0.99364-5.0392 2.5938-6.5312 1.6001-1.4921 3.803-2.2921 6.1797-2.291z"/>
   <path d="m42.968 26.442c-0.2459-0.3548-9.1869 0.19506-9.6447 0.31444-0.26652 0.0695-0.24292 0.74011 0.01874 0.8261 0.72562 0.23846 9.329-0.23263 9.6532-0.34795 0.24907-0.08858 0.13077-0.55521-0.0273-0.79258-3e-6 -5e-6 1.7e-5 0 1.7e-5 0z"/>
   <path d="m38.766 32.295c0.34318-0.26187-0.61493-9.1684-0.75512-9.6202-0.08161-0.26307-0.75044-0.20882-0.82438 0.05649-0.20503 0.73577 0.65895 9.3086 0.78899 9.6272 0.09988 0.24476 0.56061 0.10524 0.79051-0.06351 5e-6 -4e-6 2e-6 1.7e-5 2e-6 1.6e-5z"/>
  </g>
 </g>
</svg>
