<?xml version="1.0" encoding="UTF-8" standalone="no"?>
<svg
   xmlns:dc="http://purl.org/dc/elements/1.1/"
   xmlns:cc="http://creativecommons.org/ns#"
   xmlns:rdf="http://www.w3.org/1999/02/22-rdf-syntax-ns#"
   xmlns:svg="http://www.w3.org/2000/svg"
   xmlns="http://www.w3.org/2000/svg"
   xmlns:sodipodi="http://sodipodi.sourceforge.net/DTD/sodipodi-0.dtd"
   xmlns:inkscape="http://www.inkscape.org/namespaces/inkscape"
   width="72"
   height="107"
   viewBox="0 0 19.05 28.310418"
   version="1.1"
   id="svg8"
   inkscape:version="1.0.2 (e86c870879, 2021-01-15)"
   sodipodi:docname="logo_extended.svg">
  <defs
     id="defs2">
    <clipPath
       clipPathUnits="userSpaceOnUse"
       id="clipPath872">
      <path
         id="path874"
         style="fill:#fac345;fill-opacity:0.349485;stroke:#313a49;stroke-width:0.312481;stroke-opacity:1"
         d="M -2.7342433,1.3813023 V 32.195987 H 34.263555 V 1.3813023 Z M 28.75766,10.263146 29.255551,22.176154 23.818267,22.062661 14.165348,17.219302 c 0,0 -0.134872,-0.05219 8.677792,-6.75187 z" />
    </clipPath>
  </defs>
  <sodipodi:namedview
     id="base"
     pagecolor="#ffffff"
     bordercolor="#666666"
     borderopacity="1.0"
     inkscape:pageopacity="0.0"
     inkscape:pageshadow="2"
     inkscape:zoom="1.979899"
     inkscape:cx="59.681707"
     inkscape:cy="60.081676"
     inkscape:document-units="mm"
     inkscape:current-layer="layer1"
     inkscape:document-rotation="0"
     showgrid="false"
     inkscape:window-width="1920"
     inkscape:window-height="1051"
     inkscape:window-x="0"
     inkscape:window-y="0"
     inkscape:window-maximized="1"
     units="px" />
  <metadata
     id="metadata5">
    <rdf:RDF>
      <cc:Work
         rdf:about="">
        <dc:format>image/svg+xml</dc:format>
        <dc:type
           rdf:resource="http://purl.org/dc/dcmitype/StillImage" />
        <dc:title></dc:title>
      </cc:Work>
    </rdf:RDF>
  </metadata>
  <g
     inkscape:label="Layer 1"
     inkscape:groupmode="layer"
     id="layer1">
    <path
       style="fill:#fac345;fill-opacity:1;stroke:#403e43;stroke-width:0.794622;stroke-linecap:butt;stroke-linejoin:miter;stroke-miterlimit:4;stroke-dasharray:none;stroke-opacity:1"
       d="m -10.123788,-20.536712 c 0.0075,-0.567059 -3.178575,-4.55521 -8.105213,-4.557513 -4.926637,-0.0023 -9.200868,3.32972 -9.161785,9.249942 0.03908,5.9202223 4.646219,9.0076363 9.822593,9.0054343 5.176373,-0.0022 8.4185183,-5.4501073 8.4324773,-6.1457793 0.01396,-0.695672 -8.4448823,-2.172879 -8.1850233,-2.964662 0.259859,-0.791784 7.18941,-4.020363 7.196951,-4.587422 z"
       id="path877-6-5"
       sodipodi:nodetypes="zzzzzcz"
       inkscape:export-xdpi="96"
       inkscape:export-ydpi="96" />
    <g
       id="g3704"
       transform="matrix(0.99904195,0,0,1.0004209,-27.914797,-4.1933358)">
      <path
         style="fill:#fac345;fill-opacity:1;stroke:#403e43;stroke-width:0.79375;stroke-linecap:butt;stroke-linejoin:miter;stroke-miterlimit:4;stroke-dasharray:none;stroke-opacity:1"
         d="m 45.623285,9.131338 c 0.0075,-0.56524 -3.181812,-4.5405952 -8.113466,-4.5428902 -4.931654,-0.0023 -9.210237,3.3190362 -9.171114,9.2202632 0.03912,5.901227 4.65095,8.978736 9.832594,8.976541 5.181644,-0.0022 8.42709,-5.432621 8.441064,-6.126061 0.01397,-0.69344 -8.453482,-2.165907 -8.193358,-2.95515 0.260124,-0.789243 7.196731,-4.007463 7.20428,-4.572703 z"
         id="path877-6-5-3"
         sodipodi:nodetypes="zzzzzcz" />
      <g
         id="g1039"
         transform="translate(0.52655564,0.28348215)">
        <path
           style="color:#000000;font-style:normal;font-variant:normal;font-weight:normal;font-stretch:normal;font-size:medium;line-height:normal;font-family:sans-serif;font-variant-ligatures:normal;font-variant-position:normal;font-variant-caps:normal;font-variant-numeric:normal;font-variant-alternates:normal;font-variant-east-asian:normal;font-feature-settings:normal;font-variation-settings:normal;text-indent:0;text-align:start;text-decoration:none;text-decoration-line:none;text-decoration-style:solid;text-decoration-color:#000000;letter-spacing:normal;word-spacing:normal;text-transform:none;writing-mode:lr-tb;direction:ltr;text-orientation:mixed;dominant-baseline:auto;baseline-shift:baseline;text-anchor:start;white-space:normal;shape-padding:0;shape-margin:0;inline-size:0;clip-rule:nonzero;display:inline;overflow:visible;visibility:visible;opacity:1;isolation:auto;mix-blend-mode:normal;color-interpolation:sRGB;color-interpolation-filters:linearRGB;solid-color:#000000;solid-opacity:1;vector-effect:none;fill:#403e43;fill-opacity:1;fill-rule:nonzero;stroke:none;stroke-linecap:round;stroke-linejoin:miter;stroke-miterlimit:4;stroke-dasharray:none;stroke-dashoffset:0;stroke-opacity:1;color-rendering:auto;image-rendering:auto;shape-rendering:auto;text-rendering:auto;enable-background:accumulate;stop-color:#000000;stop-opacity:1"
           d="m 42.441686,26.158969 c -0.245899,-0.354795 -9.186926,0.195058 -9.644683,0.314437 -0.266525,0.0695 -0.24292,0.740109 0.01874,0.826102 0.725623,0.23846 9.328954,-0.232626 9.65323,-0.347954 0.249068,-0.08858 0.13077,-0.555208 -0.0273,-0.792585 -3e-6,-5e-6 1.7e-5,0 1.7e-5,0 z"
           id="path983-5"
           sodipodi:nodetypes="ssssss" />
        <path
           style="color:#000000;font-style:normal;font-variant:normal;font-weight:normal;font-stretch:normal;font-size:medium;line-height:normal;font-family:sans-serif;font-variant-ligatures:normal;font-variant-position:normal;font-variant-caps:normal;font-variant-numeric:normal;font-variant-alternates:normal;font-variant-east-asian:normal;font-feature-settings:normal;font-variation-settings:normal;text-indent:0;text-align:start;text-decoration:none;text-decoration-line:none;text-decoration-style:solid;text-decoration-color:#000000;letter-spacing:normal;word-spacing:normal;text-transform:none;writing-mode:lr-tb;direction:ltr;text-orientation:mixed;dominant-baseline:auto;baseline-shift:baseline;text-anchor:start;white-space:normal;shape-padding:0;shape-margin:0;inline-size:0;clip-rule:nonzero;display:inline;overflow:visible;visibility:visible;isolation:auto;mix-blend-mode:normal;color-interpolation:sRGB;color-interpolation-filters:linearRGB;solid-color:#000000;solid-opacity:1;vector-effect:none;fill:#403e43;fill-opacity:1;fill-rule:nonzero;stroke:none;stroke-linecap:round;stroke-linejoin:miter;stroke-miterlimit:4;stroke-dasharray:none;stroke-dashoffset:0;stroke-opacity:1;color-rendering:auto;image-rendering:auto;shape-rendering:auto;text-rendering:auto;enable-background:accumulate;stop-color:#000000"
           d="m 38.238945,32.011098 c 0.343179,-0.261866 -0.614929,-9.168399 -0.755115,-9.620219 -0.08161,-0.263067 -0.750442,-0.208824 -0.824381,0.05649 -0.205031,0.735768 0.658952,9.30856 0.788986,9.627223 0.09988,0.244757 0.560608,0.105245 0.790508,-0.06351 5e-6,-4e-6 2e-6,1.7e-5 2e-6,1.6e-5 z"
           id="path983-5-6"
           sodipodi:nodetypes="ssssss" />
      </g>
    </g>
  </g>
</svg>
