<svg width="72" height="72" version="1.1" viewBox="0 0 19.05 19.05" xmlns="http://www.w3.org/2000/svg" id="logo_minimal">
 <path d="m17.665 4.9548c0.007492-0.56706-3.1786-4.5552-8.1052-4.5575-4.9266-0.0023074-9.2009 3.3297-9.1618 9.2499 0.03908 5.9202 4.6462 9.0076 9.8226 9.0054 5.1764-0.0022 8.4185-5.4501 8.4325-6.1458 0.01396-0.69567-8.4449-2.1729-8.185-2.9647s7.1894-4.0204 7.197-4.5874z" style="color-rendering:auto;color:#000000;dominant-baseline:auto;fill:#fac345;font-feature-settings:normal;font-variant-alternates:normal;font-variant-caps:normal;font-variant-east-asian:normal;font-variant-ligatures:normal;font-variant-numeric:normal;font-variant-position:normal;font-variation-settings:normal;image-rendering:auto;inline-size:0;isolation:auto;mix-blend-mode:normal;shape-margin:0;shape-padding:0;shape-rendering:auto;solid-color:#000000;stop-color:#000000;text-decoration-color:#000000;text-decoration-line:none;text-decoration-style:solid;text-indent:0;text-orientation:mixed;text-transform:none;white-space:normal"/>
 <path 
 fill="var(--header-color)"
 d="m9.5586 0c-2.5529-0.0011957-4.9523 0.86307-6.7129 2.5117-1.7606 1.6486-2.8659 4.0825-2.8457 7.1387 0.020217 3.0627 1.2387 5.4429 3.127 7.0254 1.8882 1.5824 4.4265 2.3761 7.0937 2.375 2.7275-0.0012 4.9251-1.4336 6.4316-2.9297 0.75325-0.74803 1.3378-1.5152 1.7402-2.1484 0.20122-0.3166 0.35704-0.59764 0.4668-0.83398s0.18667-0.38708 0.19141-0.62305c0.0049-0.24536-0.13893-0.37387-0.24219-0.45703-0.10326-0.08316-0.21308-0.14328-0.34375-0.20508-0.26134-0.1236-0.60021-0.24414-1.002-0.37109-0.80349-0.2539-1.8535-0.52933-2.8926-0.80664-1.0391-0.27731-2.0688-0.55753-2.8027-0.81055-0.3454-0.11907-0.60879-0.23127-0.77734-0.32227 0.04327-0.04802 0.02224-0.02527 0.10352-0.087891 0.19488-0.15015 0.47765-0.33739 0.81445-0.54492 0.6736-0.41505 1.5629-0.91023 2.4453-1.3984 0.88237-0.4882 1.7593-0.96924 2.4258-1.3711 0.33324-0.20093 0.61232-0.38091 0.82422-0.54102 0.10595-0.080053 0.1955-0.15462 0.27344-0.23828s0.1824-0.16396 0.18555-0.40039c0.003434-0.25994-0.08845-0.378-0.19922-0.56641-0.11077-0.1884-0.26498-0.40486-0.46289-0.64453-0.39582-0.47934-0.96795-1.0481-1.6992-1.6016-1.4625-1.1069-3.5721-2.1472-6.1426-2.1484zm0 0.79492c2.3562 0.001101 4.3038 0.95682 5.6641 1.9863 0.68014 0.51476 1.211 1.0466 1.5645 1.4746 0.17671 0.214 0.30935 0.40277 0.39062 0.54102 0.04387 0.074619 0.03756 0.049448 0.04883 0.082031-0.03097 0.027496-0.05101 0.047742-0.10156 0.085938-0.16952 0.12809-0.43434 0.30028-0.75586 0.49414-0.64305 0.38773-1.517 0.86863-2.4004 1.3574-0.88344 0.4888-1.7775 0.9853-2.4766 1.416-0.34951 0.21536-0.64896 0.41357-0.88281 0.59375-0.23385 0.18018-0.41795 0.28228-0.51953 0.5918-0.06888 0.20988 0.03077 0.43082 0.12891 0.54297 0.09814 0.11215 0.20557 0.18106 0.33008 0.25195 0.24902 0.14179 0.57166 0.2701 0.96094 0.4043 0.77855 0.26839 1.8141 0.5502 2.8555 0.82812 1.0414 0.27793 2.0869 0.55145 2.8574 0.79492 0.38525 0.12174 0.70477 0.23859 0.90234 0.33203 0.04452 0.02105 0.05347 0.02938 0.08398 0.04687-0.01641 0.05453-0.01585 0.0663-0.07031 0.18359-0.09044 0.19476-0.23044 0.45214-0.41602 0.74414-0.37116 0.584-0.92478 1.3105-1.6309 2.0117-1.4122 1.4024-3.4223 2.6962-5.8711 2.6973-2.5091 0.0011-4.8648-0.74868-6.584-2.1894-1.7192-1.4408-2.8229-3.5644-2.8418-6.4219-0.018907-2.864 0.9953-5.0559 2.5938-6.5527 1.5984-1.4968 3.7962-2.298 6.1699-2.2969z" />
</svg>
